<?xml version="1.0" encoding="UTF-8"?>
<svg id="Layer_1" data-name="Layer 1" xmlns="http://www.w3.org/2000/svg" viewBox="0 0 495.1 591.08">
  <defs>
    <style>
      .cls-1 {
        fill: #3a3a3a;
        fill-rule: evenodd;
      }
    </style>
  </defs>
  <path class="cls-1" d="m278.25,30.71L247.55,0l-30.7,30.7v222.98l30.7,30.71,30.7-30.72V30.71m44.73,484.92l138.41-138.41c44.93-44.93,44.93-118.45,0-163.37l-28.89-28.88v90.9c7.59,20.58,2.64,44-12.91,59.56l-95.38,95.38-34.87-34.87,95.6-95.59v-162.95l-59.11-59.11v197.57l-78.28,78.29-78.28-78.29V78.29l-59.11,59.11v162.95l95.6,95.59-34.87,34.87-95.38-95.38c-15.55-15.55-20.5-38.98-12.91-59.56v-90.9l-28.89,28.88c-44.93,44.92-44.93,118.45,0,163.37l138.41,138.41,75.44-75.43,75.44,75.43Zm-75.44,75.44l41.79-41.79-41.79-41.8-41.79,41.8,41.79,41.79Z"/>
</svg>